# xmcd CD database file
#
# Track frame offsets:
#	150
#	12795
#	27382
#	39772
#	56842
#	77642
#	93920
#	107037
#	123145
#	136760
#
# Disc length: 2011 seconds
#
# Revision: 1
# Processed by: cddbd v1.5.2PL0 Copyright (c) Steve Scherf et al.
# Submitted via: CDex 1.79
#
DISCID=6e07d90a
DTITLE=Jennifer Weatherly - Lucky Day
DYEAR=1995
DGENRE=Country
TTITLE0=Lucky Day
TTITLE1=Loving Like Strangers
TTITLE2=Roll On Santa Fe (Carry Me Home)
TTITLE3=You Don`t Know How Lucky You Are
TTITLE4=Distance
TTITLE5=He Lays It All On The Line
TTITLE6=Swimmin` Upstream
TTITLE7=Bye Bye Love
TTITLE8=Apt. #9
TTITLE9=The Rest Is History
EXTD=YEAR: 1995
EXTT0=
EXTT1=
EXTT2=
EXTT3=
EXTT4=
EXTT5=
EXTT6=
EXTT7=
EXTT8=
EXTT9=
PLAYORDER=
